<svg xmlns="http://www.w3.org/2000/svg" xmlns:xlink="http://www.w3.org/1999/xlink" width="289" height="20.412" viewBox="0 0 289 20.412">
  <defs>
    <clipPath id="clip-path">
      <path id="Path_469678" data-name="Path 469678" d="M0,0H289V20H0Z" fill="#fff"/>
    </clipPath>
  </defs>
  <g id="border_logo" transform="translate(3028 -12798.587)">
    <g id="Group_135856" data-name="Group 135856" transform="translate(-3027.5 12798.588)" style="isolation: isolate">
      <path id="Path_162749" data-name="Path 162749" d="M0,147.367l288,.7v1.083S215.707,166,143.707,166,0,149.147,0,149.147Z" transform="translate(0 -147.367)"/>
    </g>
    <g id="Mask_Group_9" data-name="Mask Group 9" transform="translate(-3028 12799)" clip-path="url(#clip-path)">
      <g id="Group_135859" data-name="Group 135859" transform="translate(0.502 -1.221)" style="isolation: isolate">
        <g id="Path_162749-2" data-name="Path 162749" transform="translate(0 -145.779)" fill="none">
          <path d="M0,145.779H288v3.368S215.7,166,143.706,166,0,149.147,0,149.147Z" stroke="none"/>
          <path d="M 1 146.779296875 L 1 148.3507843017578 C 4.71337890625 149.1941833496094 21.51675415039062 152.9099731445312 45.0076904296875 156.5856170654297 C 60.62118530273438 159.0286865234375 76.08522033691406 160.9751892089844 90.97029113769531 162.3711090087891 C 109.5711822509766 164.1155090332031 127.3139038085938 165 143.7055511474609 165 C 160.0936279296875 165 177.8629760742188 164.1159057617188 196.5200500488281 162.3722534179688 C 211.4512329101562 160.9768218994141 226.9806213378906 159.0309295654297 242.6768646240234 156.5886077880859 C 266.3113708496094 152.9111022949219 283.2616577148438 149.1909942626953 286.9965209960938 148.3493499755859 L 286.9965209960938 146.779296875 L 1 146.779296875 M 0 145.779296875 L 287.9965209960938 145.779296875 L 287.9965209960938 149.1471862792969 C 287.9965209960938 149.1471862792969 215.7046508789062 166 143.7055511474609 166 C 71.70640563964844 166 0 149.1471862792969 0 149.1471862792969 L 0 145.779296875 Z" stroke="none" fill="#fff"/>
        </g>
      </g>
    </g>
  </g>
</svg>
