<svg id="event_logo" xmlns="http://www.w3.org/2000/svg" xmlns:xlink="http://www.w3.org/1999/xlink" width="204.876" height="81.402" viewBox="0 0 204.876 81.402">
  <defs>
    <clipPath id="clip-path">
      <rect id="Rectangle_14876" data-name="Rectangle 14876" width="86.89" height="50.305" fill="#fff"/>
    </clipPath>
    <clipPath id="clip-path-2">
      <rect id="Rectangle_14877" data-name="Rectangle 14877" width="96.95" height="81.402" fill="#fff"/>
    </clipPath>
  </defs>
  <g id="Group_118496" data-name="Group 118496" transform="translate(117.987 16.463)" clip-path="url(#clip-path)">
    <path id="Path_162750" data-name="Path 162750" d="M103.405,23.072h3.012v8.5A13.059,13.059,0,0,1,98.1,34.339c-6.749.005-11.712-4.7-11.712-11.14s4.963-11.145,11.778-11.145a11.087,11.087,0,0,1,8.45,3.361l-1.946,1.928a8.769,8.769,0,0,0-6.377-2.521c-5.09,0-8.766,3.518-8.766,8.376s3.676,8.376,8.73,8.376a9.366,9.366,0,0,0,5.151-1.4v-7.1Z" transform="translate(-86.384 -12.054)" fill="#fff"/>
    <path id="Path_162751" data-name="Path 162751" d="M119.894,16.111v16.5h-2.859v-2.49a6.8,6.8,0,0,1-5.652,2.677c-4.3,0-7.158-2.333-7.158-7.192V16.111h3.012v9.151c0,3.239,1.635,4.859,4.494,4.859,3.14,0,5.151-1.928,5.151-5.481V16.111h3.013Z" transform="translate(-79.857 -10.569)" fill="#fff"/>
    <path id="Path_162752" data-name="Path 162752" d="M134.517,25.4h-13.5c.377,2.9,2.732,4.823,6.029,4.823a6.237,6.237,0,0,0,4.805-1.994l1.664,1.928a8.394,8.394,0,0,1-6.566,2.677c-5.37,0-8.949-3.518-8.949-8.437a8.1,8.1,0,0,1,8.352-8.407c4.8,0,8.229,3.426,8.229,8.5,0,.248-.03.623-.06.9Zm-13.5-2.146h10.675a5.38,5.38,0,0,0-10.681,0Z" transform="translate(-74.819 -10.613)" fill="#fff"/>
    <path id="Path_162753" data-name="Path 162753" d="M130.874,30.907l1.255-2.364a10.767,10.767,0,0,0,5.842,1.711c2.792,0,3.957-.84,3.957-2.242,0-3.7-10.522-.5-10.522-7.066,0-2.956,2.67-4.95,6.937-4.95a12.222,12.222,0,0,1,6.06,1.493l-1.287,2.364a8.724,8.724,0,0,0-4.8-1.306c-2.639,0-3.925.967-3.925,2.273,0,3.892,10.553.714,10.553,7.131,0,2.986-2.762,4.889-7.194,4.889a12.107,12.107,0,0,1-6.877-1.928Z" transform="translate(-70.109 -10.611)" fill="#fff"/>
    <path id="Path_162754" data-name="Path 162754" d="M153.145,32.612a5.706,5.706,0,0,1-3.64,1.154c-3.36,0-5.274-1.837-5.274-5.168v-9.06H141.4v-2.46h2.829V13.466h3.017v3.614h4.774v2.46h-4.774v8.933a2.438,2.438,0,0,0,2.609,2.769,3.8,3.8,0,0,0,2.353-.779l.945,2.146Z" transform="translate(-66.255 -11.537)" fill="#fff"/>
    <path id="Path_162755" data-name="Path 162755" d="M86.384,43.709c0-6.443,4.963-11.145,11.651-11.145a10.927,10.927,0,0,1,8.352,3.391l-2.042,1.964a8.174,8.174,0,0,0-6.188-2.586,8.377,8.377,0,1,0,6.188,14.136l2.042,1.964A10.955,10.955,0,0,1,98,54.859c-6.658,0-11.62-4.7-11.62-11.145Z" transform="translate(-86.384 -4.55)" fill="#fff"/>
    <path id="Path_162756" data-name="Path 162756" d="M103.212,31.79h3.012v23.1h-3.012Z" transform="translate(-80.227 -4.833)" fill="#fff"/>
    <path id="Path_162757" data-name="Path 162757" d="M108.457,33.409a1.978,1.978,0,0,1,2.042-1.964,1.945,1.945,0,0,1,2.042,1.9,1.967,1.967,0,0,1-2.042,1.994A1.932,1.932,0,0,1,108.457,33.409Zm.535,5.107H112v16.5h-3.012Z" transform="translate(-78.308 -4.959)" fill="#fff"/>
    <path id="Path_162758" data-name="Path 162758" d="M113.353,44.914c0-4.919,3.675-8.407,8.792-8.407a7.448,7.448,0,0,1,6.784,3.518l-2.292,1.463a5.2,5.2,0,0,0-4.524-2.364,5.5,5.5,0,0,0-5.712,5.79,5.523,5.523,0,0,0,5.712,5.821,5.208,5.208,0,0,0,4.524-2.364l2.292,1.432a7.461,7.461,0,0,1-6.784,3.548C117.024,53.351,113.353,49.833,113.353,44.914Z" transform="translate(-76.517 -3.107)" fill="#fff"/>
    <path id="Path_162759" data-name="Path 162759" d="M133.133,47.2l-3.457,3.173v4.515h-3.012V31.79h3.012v14.82l9.079-8.22h3.64l-7.005,6.817,7.694,9.682h-3.706l-6.25-7.688Z" transform="translate(-71.648 -4.833)" fill="#fff"/>
    <path id="Path_162760" data-name="Path 162760" d="M138.114,51.418l1.257-2.364a10.759,10.759,0,0,0,5.84,1.711c2.793,0,3.957-.84,3.957-2.242,0-3.7-10.522-.5-10.522-7.066,0-2.956,2.67-4.95,6.938-4.95A12.227,12.227,0,0,1,151.645,38l-1.287,2.364a8.731,8.731,0,0,0-4.805-1.306c-2.639,0-3.925.967-3.925,2.273,0,3.892,10.553.714,10.553,7.131,0,2.986-2.762,4.889-7.194,4.889a12.107,12.107,0,0,1-6.877-1.928Z" transform="translate(-67.46 -3.107)" fill="#fff"/>
  </g>
  <g id="Group_118497" data-name="Group 118497" clip-path="url(#clip-path-2)">
    <path id="Path_162761" data-name="Path 162761" d="M34.314,0H5.134A3.064,3.064,0,0,0,2.078,3.072V37.629A3.064,3.064,0,0,0,5.134,40.7h29.18a3.064,3.064,0,0,0,3.056-3.072V3.072A3.064,3.064,0,0,0,34.314,0Z" transform="translate(0.76)" fill="#f2889b"/>
    <path id="Path_162762" data-name="Path 162762" d="M27.457,12.606V45.251A3.352,3.352,0,0,0,30.8,48.612H83.562a3.352,3.352,0,0,0,3.343-3.361V12.606a3.352,3.352,0,0,0-3.343-3.361H30.8A3.352,3.352,0,0,0,27.457,12.606Z" transform="translate(10.045 3.382)" fill="#a9d9d0"/>
    <path id="Path_162763" data-name="Path 162763" d="M30.644,40.9V64.453a3.124,3.124,0,0,0,3.116,3.132H72.707a3.124,3.124,0,0,0,3.116-3.132V40.9a3.124,3.124,0,0,0-3.116-3.132H33.76A3.124,3.124,0,0,0,30.644,40.9Z" transform="translate(11.211 13.817)" fill="#f2a88d"/>
    <path id="Path_162764" data-name="Path 162764" d="M0,31.812V52.257a3.124,3.124,0,0,0,3.116,3.132H40.86a3.124,3.124,0,0,0,3.116-3.132V31.812A3.124,3.124,0,0,0,40.86,28.68H3.116A3.124,3.124,0,0,0,0,31.812Z" transform="translate(0 10.492)" fill="#1c3659"/>
    <path id="Path_162765" data-name="Path 162765" d="M61.957,29.045a2.093,2.093,0,0,0,1.63-1.579,11.681,11.681,0,0,0-2.14-8.789A11.525,11.525,0,0,0,53.784,14.3l-24.271-.025-8.133-.01-.154.025a11.416,11.416,0,0,0-9.694,11.627V44.367a11.512,11.512,0,0,0,2.605,6.543,11.24,11.24,0,0,0,2.036,1.9A11.363,11.363,0,0,0,20.1,54.639l.238.06H54.072l.173-.03a11.112,11.112,0,0,0,5.082-2.305,11.394,11.394,0,0,0,3.953-6.757l.035-.184V32.446H48.3a11.336,11.336,0,0,0-9.852-8.554,11.08,11.08,0,0,0-8.926,3.545,12.02,12.02,0,0,0-2.115,3.107v.01a1.02,1.02,0,0,0-.045.164,2.038,2.038,0,0,0,3.72,1.569,8.229,8.229,0,0,1,.882-1.454,7.114,7.114,0,0,1,6.162-2.878,7.393,7.393,0,0,1,6.518,7.106,7.187,7.187,0,0,1-2.868,6.1,6.847,6.847,0,0,1-7.5.5c-.139-.075-.272-.154-.406-.239a7.134,7.134,0,0,1-2.759-3.246,2.032,2.032,0,0,0-3.73,1.593,16.994,16.994,0,0,0,5.775,5.652,9.475,9.475,0,0,0,4.532,1.195,10.835,10.835,0,0,0,2.63-.324,11.051,11.051,0,0,0,6.811-5.124,11.308,11.308,0,0,0,1.521-4.641H59.278v8.515A7.413,7.413,0,0,1,56.8,49.2,7.053,7.053,0,0,1,53.73,50.63H20.845a7.233,7.233,0,0,1-5.25-6.458V25.834a7.576,7.576,0,0,1,1.545-4.765A7.464,7.464,0,0,1,21.7,18.34h7.816l23.91.015a7.393,7.393,0,0,1,4.8,2.793A9.238,9.238,0,0,1,59.634,27.5c0,1.2,1.352,1.708,2.323,1.544Z" transform="translate(4.218 5.218)" fill="#f2efeb"/>
    <path id="Path_162766" data-name="Path 162766" d="M32.048,35.034A5.007,5.007,0,0,0,37.288,30.3a5.007,5.007,0,0,0-5.241-4.735A5.007,5.007,0,0,0,26.807,30.3,5.007,5.007,0,0,0,32.048,35.034Z" transform="translate(9.807 9.352)" fill="#f2efeb"/>
  </g>
</svg>
