<svg xmlns="http://www.w3.org/2000/svg" width="568.289" height="497.202" viewBox="0 0 568.289 497.202">
  <g id="wire" transform="translate(0.089 0.454)" opacity="0.16">
    <g id="Group_135811" data-name="Group 135811">
      <path id="Path_469616" data-name="Path 469616" d="M668,207.5c28.334,13.125-17.286,128.125,120,128.125,72.5,0,56.875,93.959,100.625,100.625" transform="translate(-399.25 -176.875)" fill="none" stroke="#f6f5fa" stroke-width="1"/>
      <path id="Path_469617" data-name="Path 469617" d="M731,183c28.334,13.125-17.286,128.125,120,128.125,72.5,0,56.875,93.959,100.625,100.625" transform="translate(-383.5 -183)" fill="none" stroke="#f6f5fa" stroke-width="1"/>
      <path id="Path_469618" data-name="Path 469618" d="M568,272.7c45.985-8.329,140.135-8.341,121.25,40.771C658,394.739,731.576,474.581,928,490.364" transform="translate(-424.25 -161.614)" fill="none" stroke="#f6f5fa" stroke-width="1"/>
      <path id="Path_469619" data-name="Path 469619" d="M500,297.125c56.843-10.279,173.223-10.294,149.879,50.316C611.25,447.737,702.2,546.273,945,565.75" transform="translate(-441.25 -155.75)" fill="none" stroke="#f6f5fa" stroke-width="1"/>
      <path id="Path_469620" data-name="Path 469620" d="M453,337.8c64.347-11.64,196.091-11.658,169.666,56.98C578.938,508.36,681.894,619.944,956.75,642" transform="translate(-453 -145.75)" fill="none" stroke="#f6f5fa" stroke-width="1"/>
    </g>
  </g>
</svg>
