<svg xmlns="http://www.w3.org/2000/svg" xmlns:xlink="http://www.w3.org/1999/xlink" width="53.24" height="45.983" viewBox="0 0 53.24 45.983">
  <defs>
    <clipPath id="clip-path">
      <rect id="Rectangle_20098" data-name="Rectangle 20098" width="44.205" height="51.729"/>
    </clipPath>
  </defs>
  <g id="arrow_03" transform="translate(0 44.178) rotate(-88)" opacity="0.3">
    <g id="Group_135648" data-name="Group 135648" transform="translate(0 0)" clip-path="url(#clip-path)">
      <path id="Path_167720" data-name="Path 167720" d="M23.288,18.266a20.851,20.851,0,0,0-2.209,1.052A23,23,0,0,0,9.653,35.3a28.354,28.354,0,0,0-.513,7.234A30.287,30.287,0,0,0,10.5,49.629a.371.371,0,0,0,.714-.2,32.552,32.552,0,0,1-.96-6.946,29.968,29.968,0,0,1,.536-6.954A21.81,21.81,0,0,1,21.7,20.452q.781-.423,1.585-.772a20.242,20.242,0,0,0,.354,3.241C24.911,29.546,29.463,34.878,36.5,34.77c4.318-.034,6.681-2.571,7.23-5.677a9.819,9.819,0,0,0-3.357-8.835c-4.213-3.7-10.329-4.377-16.045-2.388A18.781,18.781,0,0,1,29.226,6.134a16.044,16.044,0,0,1,8.295-4.691,20.413,20.413,0,0,1,6.769-.257,23.058,23.058,0,0,1,2.927.449.138.138,0,0,0,.091-.261A14.427,14.427,0,0,0,44.43.346,17.311,17.311,0,0,0,28.463,5.423a19.879,19.879,0,0,0-5.175,12.843m1.014,1a18.992,18.992,0,0,0,.351,3.454C25.847,28.8,30.017,33.74,36.482,33.59c3.546-.109,5.458-2.176,5.884-4.733a8.512,8.512,0,0,0-2.886-7.58c-3.967-3.506-9.789-4.014-15.178-2.008" transform="translate(-3.195 0)" fill-rule="evenodd"/>
      <path id="Path_167721" data-name="Path 167721" d="M7.563,69.949c-.66-1.093-1.65-2.744-1.754-2.921L3.875,63.913.45,59.019a.243.243,0,1,0-.412.259L2.874,64.5,4.617,67.72c.124.217,1.5,2.6,2.074,3.553A1.627,1.627,0,0,0,7.509,72a.919.919,0,0,0,.825-.506,12.823,12.823,0,0,0,.7-2.311L11.26,61.41c.737-2.678,1.184-3.493.536-3.718-.13-.054-.269-.019-.553.242a1.119,1.119,0,0,0-.192.356,24.258,24.258,0,0,0-.862,2.779L7.71,68.8c-.021.07-.057.639-.147,1.15" transform="translate(0 -20.273)" fill-rule="evenodd"/>
    </g>
  </g>
</svg>
