<svg xmlns="http://www.w3.org/2000/svg" width="80.542" height="68.466" viewBox="0 0 80.542 68.466">
  <g id="icon02" transform="translate(-582.032 -468.507)">
    <path id="Path_167732" data-name="Path 167732" d="M599.309,512.024a8.494,8.494,0,0,1,3.634,5.02c.134.5.325.988.507,1.476a4.58,4.58,0,0,0,3.037,2.94,16.529,16.529,0,0,0,2.566.568,2.478,2.478,0,0,1,2.128,1.757c.22.612.43,1.229.7,1.822a6.061,6.061,0,0,0,3.84,3.5,30.264,30.264,0,0,0,4.508.75,2.5,2.5,0,0,1,2.412,2.155c.171.724.283,1.464.4,2.2a16.885,16.885,0,0,0,2.931,7.567c1.292,1.758,2.869,3.05,5.246,2.748a3.03,3.03,0,0,1,2.912,1.2,2.681,2.681,0,0,0,2.242.985,2.726,2.726,0,0,0,1.627-.788c1.078-.827,1.525-.759,2.339.3a5.611,5.611,0,0,0,1.4,1.474c1.22.765,2.257.411,2.61-.986a10.836,10.836,0,0,0,.258-4.145,35.969,35.969,0,0,0-2.046-8.1c-.112-.294-.2-.6-.308-.907a.8.8,0,0,1,.727.335,18.561,18.561,0,0,1,2.249,2.565,21.071,21.071,0,0,1,2.213,4.339,4.666,4.666,0,0,0,1.171,1.66,1.381,1.381,0,0,0,2.4-.59,4.164,4.164,0,0,0,.1-2.4c-.382-1.749-1.443-3.188-2.227-4.754-.124-.249-.353-.451-.327-.8a.96.96,0,0,1,.6.3c.68.606,1.348,1.227,2.04,1.82a13.253,13.253,0,0,0,6.84,3.5,5.84,5.84,0,0,0,5.566-2.089,9.4,9.4,0,0,1,4.406-3.068,14.114,14.114,0,0,0,6.806-5.023,4.9,4.9,0,0,0,1.253-3.6,7.294,7.294,0,0,0-.661-2.232c-.236-.536-.52-1.051-.781-1.576a9.516,9.516,0,0,1-1.117-4.887c.04-.649,0-1.3.014-1.955a6.769,6.769,0,0,0-1.87-4.59,7.9,7.9,0,0,0-3.253-2.089c-1.014-.4-1.124-.665-.892-1.723.07-.317.166-.628.243-.944a19.82,19.82,0,0,0,.683-5.2,6.788,6.788,0,0,0-2.2-5.227c-.269-.236-.512-.5-.758-.762a4.738,4.738,0,0,1-1.367-3.343c-.007-1.11.2-2.2.243-3.3a3.8,3.8,0,0,0-2.217-3.8,19.149,19.149,0,0,1-3.37-2.318,3.961,3.961,0,0,0-3.732-.86,7.879,7.879,0,0,0-4.358,3.118,20.028,20.028,0,0,0-3.008,6.2,35.714,35.714,0,0,0-1.591,7.513c-.162,1.679-.353,3.355-.541,5.032-.165,1.483-.339,2.964-.512,4.445-.2,1.742-.559,3.459-.849,5.186a23.64,23.64,0,0,1-2.731,7.987,5.606,5.606,0,0,1-.917,1.258c-.472.46-.57.479-1.05.052a4.134,4.134,0,0,0-.943-.69c-1.046-.5-2.346-.105-2.219,1.291a1.739,1.739,0,0,1-.087,1.185.8.8,0,0,1-.561-.272,10.572,10.572,0,0,0-2.436-1.609,7.6,7.6,0,0,1-2.43-1.72,66.992,66.992,0,0,0-5.527-4.643c-3.2-2.4-6.442-4.753-9.861-6.844q-2.293-1.4-4.708-2.58c-1.141-.555-2.306-1.059-3.469-1.57a21.045,21.045,0,0,0-6.374-2.063,5.358,5.358,0,0,0-4.075,1.226,4.124,4.124,0,0,0-.919,4.57,9.033,9.033,0,0,0,3.447,4.018m62.618,5.631a3.584,3.584,0,0,1,1.708-.3.869.869,0,0,1,.861.932,1.977,1.977,0,0,1-.965,1.445,20.126,20.126,0,0,0-1.939,1.776,1.894,1.894,0,0,0-.6,1.289,2.608,2.608,0,0,1-2.856,2.756c-.488.022-.977.024-1.464.008a15.5,15.5,0,0,0-3.952.449c-.094.022-.182.07-.277.093a.647.647,0,0,1-.733-.355.535.535,0,0,1,.125-.706,7.878,7.878,0,0,1,1.122-1.08c1.867-1.25,3.475-2.823,5.273-4.156a15.66,15.66,0,0,1,3.7-2.145m-15.515-.119a61.858,61.858,0,0,0,1.61-8.5c.179-1.348.269-2.71.419-4.065a57.86,57.86,0,0,1,1.355-8.055,41.442,41.442,0,0,1,2.714-8.019,4.14,4.14,0,0,1,.768-1.122.954.954,0,0,1,1.057-.305.978.978,0,0,1,.561.854,3.517,3.517,0,0,1,.026.584,28.876,28.876,0,0,1-.327,3.682,3.477,3.477,0,0,0,.012,1.192,2.08,2.08,0,0,0,1.014-.336,1.636,1.636,0,0,1,1.235-.062,1.008,1.008,0,0,1,.691,1.464,10.075,10.075,0,0,1-.743,1.37,23.026,23.026,0,0,0-1.269,2.084,3.068,3.068,0,0,0-.17,2.621,2.846,2.846,0,0,1-.216,2.63q-.574.907-1.219,1.765a30.454,30.454,0,0,0-3.375,5.809c-.724,1.6-1.379,3.23-2.089,4.836a22.268,22.268,0,0,1-1.589,2.8c-.086.137-.192.286-.379.241-.2-.05-.185-.246-.188-.4a3.64,3.64,0,0,1,.1-1.063M633.857,531.02a9.708,9.708,0,0,1,2.518.219,1.894,1.894,0,0,1,1.014.543c.444.465.383.865-.21,1.142a1.985,1.985,0,0,1-.839.231,35.536,35.536,0,0,0-4.371.243,2,2,0,0,1-.488-.009.871.871,0,0,1-.618-1.445,1.951,1.951,0,0,1,1.727-.928c.421.025.845,0,1.268,0m-23-19.733a4.643,4.643,0,0,1,2.085.418,41.554,41.554,0,0,1,6,3.251c2.639,1.61,5.251,3.261,7.76,5.076,1.738,1.257,3.558,2.4,5.346,3.588a3.563,3.563,0,0,1,.892.851.972.972,0,0,1-1.017-.141,27.345,27.345,0,0,0-8.273-2.483,13.666,13.666,0,0,1-2.556-.606,2.845,2.845,0,0,1-.981-.622.942.942,0,0,1-.308-1.217c.218-.378.084-.5-.221-.655-1.683-.856-3.324-1.787-4.949-2.751a27.04,27.04,0,0,1-3.437-2.4,3.153,3.153,0,0,1-.975-1.324q-.344-.916.628-.986" transform="translate(-13.512 -11.117)" fill="#a9d9d0"/>
    <path id="Path_167733" data-name="Path 167733" d="M600.714,510.79a10.651,10.651,0,0,0,1.77,1.361,8.5,8.5,0,0,1,3.539,4.76,10.862,10.862,0,0,0,.813,1.985,3.3,3.3,0,0,0,2.689,1.863c.451.056.9.123,1.351.193a3.117,3.117,0,0,1,2.488,1.825c.378.794.766,1.583,1.124,2.385a6.447,6.447,0,0,0,4.866,3.815c1.529.326,3.061.6,4.614.781.266.03.628-.056.536.45a7.726,7.726,0,0,0,.493,4.026,27.379,27.379,0,0,0,6.516,10.21,4.942,4.942,0,0,0,1.869,1.218,1.6,1.6,0,0,0,1.866-.443c.129-.143.246-.3.39-.476a9.26,9.26,0,0,0,1.84,1.768c1.393.815,2.186.541,2.892-.45a4.805,4.805,0,0,1,.3-.382c.95-1.079,1.562-1.021,2.344.219.1.165.2.336.307.5a2.933,2.933,0,0,0,.954.964,1.183,1.183,0,0,0,1.8-.507,3.171,3.171,0,0,0,.378-1.3,22.759,22.759,0,0,0-1.2-9.518,17.746,17.746,0,0,0-2.155-4.124,18.346,18.346,0,0,1,1.973,1.824,23.694,23.694,0,0,1,4.26,6.74,9.7,9.7,0,0,0,.759,1.472,1.4,1.4,0,0,0,1.548.769,1.437,1.437,0,0,0,.951-1.447,5.156,5.156,0,0,0-.416-2.382,18.869,18.869,0,0,0-2.994-4.671c-.333-.4-.67-.8-1-1.2a31.762,31.762,0,0,1,3.323,2.263,17.454,17.454,0,0,0,9.646,3.605,3.664,3.664,0,0,0,3.911-1.993c.073-.145.169-.278.248-.421a4.507,4.507,0,0,1,2.614-2.218,10.833,10.833,0,0,0,2.116-1,5.794,5.794,0,0,0,2.559-7.008,20.868,20.868,0,0,1-.747-2.322,3.929,3.929,0,0,1,.781-3.672,13.519,13.519,0,0,0,.926-1.258,3.241,3.241,0,0,0,.293-3.174,13.472,13.472,0,0,0-4.627-5.932,5.925,5.925,0,0,0-3.376-1.133c-.241,0-.517.1-.727-.106-.029-.3.167-.5.278-.727a29.462,29.462,0,0,0,2.333-6.1c.517-2.146.168-4.011-1.7-5.405-.1-.078-.2-.172-.295-.257a3.235,3.235,0,0,1-1.134-3.413,21.611,21.611,0,0,0,.374-2.41,1.9,1.9,0,0,0-1.591-2.31c-.311-.09-.636-.135-.953-.206-1.6-.362-2-.933-1.785-2.554.012-.1.05-.19.059-.287a9.692,9.692,0,0,0-.046-3.015,2.973,2.973,0,0,0-3.549-2.545,6.533,6.533,0,0,0-4.16,2.341,22.815,22.815,0,0,0-4.688,8.688.421.421,0,0,1,.114.506,2.146,2.146,0,0,0-.1,1.1,4.791,4.791,0,0,0,.541-1.344,26.447,26.447,0,0,1,4.345-8.149,9,9,0,0,1,2.068-1.922,4.293,4.293,0,0,1,2.592-.722A2.212,2.212,0,0,1,660,481.791a7.613,7.613,0,0,1,.176,1.551,19.981,19.981,0,0,1-.131,2.142,2.246,2.246,0,0,0,2.133,2.8c.352.062.709.113,1.053.208a1.391,1.391,0,0,1,1.178,1.808c-.108.741-.228,1.481-.387,2.212a3.857,3.857,0,0,0,1.339,4.033c.372.316.727.653,1.072,1a2.705,2.705,0,0,1,.79,1.539,7.588,7.588,0,0,1-.075,2.916,28.329,28.329,0,0,1-2.54,6.331,1.138,1.138,0,0,1-.917.622,8.393,8.393,0,0,0-2.051.628,22.933,22.933,0,0,0-8.56,6.807,5.389,5.389,0,0,0-1.023,2.2A3.329,3.329,0,0,0,652,519.85,1.281,1.281,0,0,0,654,520.882a6.035,6.035,0,0,0,1.457-1.142c1.2-1.193,2.374-2.421,3.614-3.576a29.432,29.432,0,0,0,5.158-6.229,1.077,1.077,0,0,1,.938-.56,5.459,5.459,0,0,1,3.677,1.063,12.411,12.411,0,0,1,3.513,3.886c1.343,2.243,1.511,3.464-.261,5.578a4.424,4.424,0,0,0-1,3.372,9.1,9.1,0,0,0,.507,2.082c.2.586.417,1.166.581,1.761a4.73,4.73,0,0,1-.3,3.331,5.78,5.78,0,0,1-3.779,3.16,5.348,5.348,0,0,0-3.484,2.913,3.16,3.16,0,0,1-3.486,1.768,16.946,16.946,0,0,1-8.654-3.018c-2.9-2.052-5.791-4.114-8.528-6.381-.15-.123-.27-.337-.6-.316a11.3,11.3,0,0,0,1.555,1.982c.8.81,1.619,1.609,2.392,2.446a25.214,25.214,0,0,1,3.815,4.935,5.754,5.754,0,0,1,.878,3.059c-.023.454.023.946-.489,1.184-.332.153-.8-.116-1.142-.726-.4-.707-.751-1.444-1.089-2.183a20.573,20.573,0,0,0-6.354-8.043,3.026,3.026,0,0,0-1.07-.622c-.157.315.064.465.186.636.323.45.68.876.983,1.337a20.605,20.605,0,0,1,3.049,10.563,8.257,8.257,0,0,1-.186,2.623c-.14.512-.161,1.211-.818,1.315-.613.1-.968-.45-1.292-.9-.267-.368-.467-.788-.752-1.14a1.441,1.441,0,0,0-2.291-.208,6.982,6.982,0,0,0-.9,1.027,1.173,1.173,0,0,1-1.775.406,5.181,5.181,0,0,1-1.8-1.619,1.521,1.521,0,0,1-.379-1.252,11.644,11.644,0,0,0,.069-1.658,2.687,2.687,0,0,0-.075-.774.743.743,0,0,0-.769-.623.733.733,0,0,0-.694.7,2.577,2.577,0,0,0,.038.97,4.667,4.667,0,0,0,.594,1.644.929.929,0,0,1-.146,1.232,1.126,1.126,0,0,1-1.424.252,4.859,4.859,0,0,1-1.589-1.119,27.893,27.893,0,0,1-6.159-9.309,9.062,9.062,0,0,1-.758-3.8c.041-.979.091-1.018,1.094-.975a51.957,51.957,0,0,0,5.375-.012,4.911,4.911,0,0,0,2.416-.693c.805-.522.805-1.168.01-1.678a4.109,4.109,0,0,0-.79-.38,8.793,8.793,0,0,0-5.284-.267,4.065,4.065,0,0,0-2.753,1.874.976.976,0,0,1-1.177.544,42.227,42.227,0,0,1-4.887-.915,5.722,5.722,0,0,1-4-3.282c-.391-.859-.775-1.723-1.2-2.564a3.577,3.577,0,0,0-2.715-2.017c-.449-.075-.9-.148-1.349-.214a3.064,3.064,0,0,1-2.493-1.8c-.39-.828-.661-1.7-.984-2.549a7.182,7.182,0,0,0-1.4-2.444,17.084,17.084,0,0,0-3.742-2.915.564.564,0,0,1-.382.177Zm60.147,2.853c-1.746,1.937-3.6,3.774-5.512,5.545a6.757,6.757,0,0,1-1.57,1.154c-.748.368-1.176.113-1.241-.734a3.255,3.255,0,0,1,.308-1.615,7.163,7.163,0,0,1,1.292-1.946,26.5,26.5,0,0,1,6.541-5.222,11.486,11.486,0,0,1,3.122-1.185,27.4,27.4,0,0,1-2.939,4m-25.928,27.5c.014-.137.079-.244.235-.24a.291.291,0,0,1,.272.23,3.675,3.675,0,0,1-.037,1.763,2.371,2.371,0,0,1-.469-1.753M628,527.448a8.745,8.745,0,0,1,5.27.4,2.208,2.208,0,0,1,.354.164c.482.285.49.558,0,.859a5.57,5.57,0,0,1-2.636.613,44.742,44.742,0,0,1-5.076.008.622.622,0,0,1-.507-.238,3.779,3.779,0,0,1,2.6-1.8" transform="translate(-14.402 -10.876)" fill="#204866"/>
    <path id="Path_167734" data-name="Path 167734" d="M605.189,510.631h0q.909.334,1.818.667a67.965,67.965,0,0,1,16.5,9c4.872,3.553,9.6,7.292,14.259,11.114.176.145.349.295.535.426.137.1.3.152.433-.008.1-.12.039-.243-.021-.359-.074-.145-.145-.291-.229-.431-2.026-3.33-4.263-6.446-7.561-8.7a4.859,4.859,0,0,1-2.094-5.3,5.14,5.14,0,0,0,.266-1.762,6.659,6.659,0,0,0-.663,3.646,5.532,5.532,0,0,0,2.383,3.881c.416.314.849.605,1.259.925a24.2,24.2,0,0,1,5.492,6.431c.106.168.343.308.219.586a2.731,2.731,0,0,1-.886-.609q-5.222-4.268-10.566-8.381A76.246,76.246,0,0,0,611.31,512.5a36.729,36.729,0,0,0-5.908-2.266.479.479,0,0,1-.213.4" transform="translate(-15.172 -16.187)" fill="#204866"/>
    <path id="Path_167735" data-name="Path 167735" d="M653.158,501.625h0c-.038.051-.1.1-.111.154a68.189,68.189,0,0,0-1.764,11.861,49.894,49.894,0,0,1-1.4,9.249,11.453,11.453,0,0,1-1.223,3.075,4.4,4.4,0,0,1-.975,1.213.738.738,0,0,1-1.131,0,2.385,2.385,0,0,1-.4-.423c-2.447-3.341-4.123-6.938-3.706-11.226a3.9,3.9,0,0,0-.079-1.5c-.162.8-.272,1.6-.4,2.4a7.016,7.016,0,0,0,0,2.135,18.641,18.641,0,0,0,2.718,6.85,10.357,10.357,0,0,0,1.414,1.985,1.312,1.312,0,0,0,2.056.089,5.027,5.027,0,0,0,.879-1.042,10.9,10.9,0,0,0,1.44-3.4,51.806,51.806,0,0,0,1.391-9.056c.156-2.108.353-4.212.675-6.306s.8-4.147,1.209-6.219c-.209.009-.294.457-.588.166" transform="translate(-21.488 -14.677)" fill="#204866"/>
    <path id="Path_167736" data-name="Path 167736" d="M600.077,515.934h0c.069-.183.25-.128.382-.177-.239-.254-.472-.517-.72-.762a9.758,9.758,0,0,1-1.892-2.45,1.7,1.7,0,0,1,1.473-2.695,7.562,7.562,0,0,1,3.535.426,5.028,5.028,0,0,0,.927.187.476.476,0,0,1,.213-.4,3.926,3.926,0,0,1-.449-.134,7.871,7.871,0,0,0-4.568-.517c-1.8.393-2.45,1.745-1.591,3.367a8.611,8.611,0,0,0,2.69,3.154" transform="translate(-13.764 -16.021)" fill="#204866"/>
  </g>
</svg>
