<svg xmlns="http://www.w3.org/2000/svg" width="95.084" height="80.828" viewBox="0 0 95.084 80.828">
  <g id="icon05" transform="translate(-582.032 -468.507)">
    <path id="Path_167732" data-name="Path 167732" d="M599.989,517.665a10.028,10.028,0,0,1,4.29,5.926c.158.591.383,1.167.6,1.743a5.407,5.407,0,0,0,3.586,3.47,19.509,19.509,0,0,0,3.03.67,2.925,2.925,0,0,1,2.512,2.074c.26.722.508,1.451.822,2.151a7.155,7.155,0,0,0,4.533,4.126,35.724,35.724,0,0,0,5.321.885,2.946,2.946,0,0,1,2.848,2.544c.2.855.334,1.729.47,2.6a19.934,19.934,0,0,0,3.461,8.934c1.526,2.076,3.386,3.6,6.193,3.245a3.577,3.577,0,0,1,3.437,1.414,3.165,3.165,0,0,0,2.647,1.163,3.218,3.218,0,0,0,1.92-.93c1.272-.976,1.8-.9,2.761.357a6.626,6.626,0,0,0,1.658,1.74c1.441.9,2.664.485,3.081-1.164a12.793,12.793,0,0,0,.3-4.893,42.464,42.464,0,0,0-2.415-9.568c-.132-.347-.239-.7-.364-1.071a.948.948,0,0,1,.858.4A21.923,21.923,0,0,1,654.2,546.5a24.877,24.877,0,0,1,2.612,5.122,5.51,5.51,0,0,0,1.382,1.959,1.63,1.63,0,0,0,2.83-.7,4.916,4.916,0,0,0,.116-2.839c-.451-2.065-1.7-3.764-2.629-5.613-.147-.294-.417-.533-.386-.95a1.134,1.134,0,0,1,.711.353c.8.715,1.591,1.448,2.408,2.148,2.359,2.02,4.864,3.694,8.075,4.137a6.9,6.9,0,0,0,6.57-2.466,11.1,11.1,0,0,1,5.2-3.622,16.663,16.663,0,0,0,8.034-5.93,5.786,5.786,0,0,0,1.48-4.246,8.61,8.61,0,0,0-.78-2.635c-.279-.632-.614-1.24-.922-1.861a11.235,11.235,0,0,1-1.319-5.769c.047-.766,0-1.538.017-2.307a7.992,7.992,0,0,0-2.208-5.418,9.324,9.324,0,0,0-3.84-2.467c-1.2-.474-1.327-.785-1.053-2.035.082-.374.2-.742.286-1.114a23.4,23.4,0,0,0,.806-6.141,8.014,8.014,0,0,0-2.6-6.171c-.318-.279-.6-.592-.9-.9a5.594,5.594,0,0,1-1.614-3.946c-.009-1.311.234-2.6.287-3.9a4.487,4.487,0,0,0-2.617-4.484,22.605,22.605,0,0,1-3.979-2.736,4.676,4.676,0,0,0-4.406-1.015,9.3,9.3,0,0,0-5.145,3.682,23.642,23.642,0,0,0-3.551,7.323,42.159,42.159,0,0,0-1.878,8.87c-.192,1.982-.417,3.961-.638,5.94-.194,1.75-.4,3.5-.6,5.248-.241,2.056-.66,4.083-1,6.123a27.908,27.908,0,0,1-3.224,9.429,6.615,6.615,0,0,1-1.083,1.485c-.557.543-.673.566-1.24.062a4.879,4.879,0,0,0-1.113-.814c-1.235-.585-2.77-.124-2.619,1.524a2.053,2.053,0,0,1-.1,1.4.939.939,0,0,1-.663-.322,12.481,12.481,0,0,0-2.876-1.9,8.975,8.975,0,0,1-2.868-2.031,79.087,79.087,0,0,0-6.525-5.482c-3.781-2.833-7.605-5.612-11.642-8.079q-2.708-1.654-5.558-3.046c-1.347-.655-2.723-1.25-4.095-1.853a24.846,24.846,0,0,0-7.524-2.435,6.326,6.326,0,0,0-4.81,1.447,4.869,4.869,0,0,0-1.085,5.395,10.664,10.664,0,0,0,4.07,4.744m73.924,6.648a4.231,4.231,0,0,1,2.016-.36,1.026,1.026,0,0,1,1.016,1.1,2.334,2.334,0,0,1-1.14,1.706,23.76,23.76,0,0,0-2.289,2.1,2.237,2.237,0,0,0-.708,1.522c-.162,2.164-1.2,3.155-3.372,3.253-.576.026-1.153.028-1.728.009a18.3,18.3,0,0,0-4.666.53c-.111.025-.215.083-.326.109a.764.764,0,0,1-.865-.419.631.631,0,0,1,.148-.834,9.3,9.3,0,0,1,1.324-1.275c2.2-1.476,4.1-3.333,6.225-4.906a18.487,18.487,0,0,1,4.363-2.532m-18.316-.141a73.022,73.022,0,0,0,1.9-10.039c.211-1.591.318-3.2.495-4.8a68.307,68.307,0,0,1,1.6-9.509,48.925,48.925,0,0,1,3.2-9.467,4.887,4.887,0,0,1,.907-1.324,1.127,1.127,0,0,1,1.248-.361,1.155,1.155,0,0,1,.663,1.009,4.15,4.15,0,0,1,.031.69,34.092,34.092,0,0,1-.386,4.347,4.106,4.106,0,0,0,.014,1.407,2.455,2.455,0,0,0,1.2-.4,1.931,1.931,0,0,1,1.458-.073,1.189,1.189,0,0,1,.816,1.729,11.892,11.892,0,0,1-.878,1.617,27.183,27.183,0,0,0-1.5,2.46,3.622,3.622,0,0,0-.2,3.094,3.36,3.36,0,0,1-.255,3.1q-.677,1.07-1.44,2.084a35.952,35.952,0,0,0-3.984,6.858c-.854,1.891-1.628,3.813-2.466,5.709a26.3,26.3,0,0,1-1.876,3.305c-.1.161-.227.338-.448.284-.239-.059-.219-.29-.222-.474a4.3,4.3,0,0,1,.12-1.255M640.774,540.09a11.464,11.464,0,0,1,2.972.258,2.236,2.236,0,0,1,1.2.641c.524.549.452,1.021-.248,1.348a2.343,2.343,0,0,1-.991.273,41.956,41.956,0,0,0-5.16.287,2.359,2.359,0,0,1-.576-.011,1.028,1.028,0,0,1-.73-1.706,2.3,2.3,0,0,1,2.039-1.1c.5.029,1,.006,1.5.006m-27.153-23.3a5.481,5.481,0,0,1,2.462.494,49.06,49.06,0,0,1,7.088,3.838c3.116,1.9,6.2,3.85,9.161,5.992,2.051,1.484,4.2,2.834,6.311,4.236a4.206,4.206,0,0,1,1.052,1,1.147,1.147,0,0,1-1.2-.166,32.281,32.281,0,0,0-9.766-2.931,16.134,16.134,0,0,1-3.017-.715,3.359,3.359,0,0,1-1.158-.734,1.112,1.112,0,0,1-.364-1.437c.257-.447.1-.59-.261-.773-1.987-1.011-3.924-2.11-5.842-3.248a31.926,31.926,0,0,1-4.058-2.833,3.722,3.722,0,0,1-1.151-1.563q-.406-1.082.742-1.164" transform="translate(-13.512 -10.908)" fill="#faf0ca"/>
    <path id="Path_167733" data-name="Path 167733" d="M600.714,516.461a12.571,12.571,0,0,0,2.089,1.607,10.031,10.031,0,0,1,4.178,5.62,12.825,12.825,0,0,0,.96,2.344,3.893,3.893,0,0,0,3.174,2.2c.533.066,1.064.146,1.595.228a3.68,3.68,0,0,1,2.937,2.154c.446.937.9,1.869,1.327,2.816a7.61,7.61,0,0,0,5.745,4.5c1.805.385,3.614.714,5.448.922.314.035.742-.066.632.531a9.12,9.12,0,0,0,.583,4.753,32.322,32.322,0,0,0,7.692,12.053,5.834,5.834,0,0,0,2.207,1.438,1.89,1.89,0,0,0,2.2-.523c.153-.169.29-.353.46-.562a10.935,10.935,0,0,0,2.173,2.088c1.645.962,2.581.638,3.414-.532a5.7,5.7,0,0,1,.359-.452c1.121-1.273,1.844-1.205,2.768.258.123.195.237.4.363.589a3.462,3.462,0,0,0,1.126,1.139,1.4,1.4,0,0,0,2.13-.6,3.743,3.743,0,0,0,.446-1.54,26.868,26.868,0,0,0-1.42-11.236,20.948,20.948,0,0,0-2.544-4.869,21.659,21.659,0,0,1,2.329,2.153,27.972,27.972,0,0,1,5.029,7.957,11.452,11.452,0,0,0,.9,1.738,1.658,1.658,0,0,0,1.828.908,1.7,1.7,0,0,0,1.123-1.708,6.087,6.087,0,0,0-.491-2.812,22.276,22.276,0,0,0-3.535-5.514c-.393-.476-.791-.948-1.185-1.422a37.495,37.495,0,0,1,3.923,2.672,20.606,20.606,0,0,0,11.388,4.256,4.326,4.326,0,0,0,4.617-2.353c.086-.171.2-.328.292-.5a5.32,5.32,0,0,1,3.086-2.618,12.788,12.788,0,0,0,2.5-1.181,6.841,6.841,0,0,0,3.021-8.274,24.635,24.635,0,0,1-.882-2.741,4.638,4.638,0,0,1,.923-4.334,15.956,15.956,0,0,0,1.094-1.485,3.827,3.827,0,0,0,.346-3.747,15.9,15.9,0,0,0-5.462-7,6.994,6.994,0,0,0-3.985-1.338c-.284,0-.61.121-.858-.125-.034-.36.2-.591.328-.858a34.777,34.777,0,0,0,2.754-7.2c.611-2.533.2-4.735-2-6.381-.122-.092-.231-.2-.348-.3a3.82,3.82,0,0,1-1.339-4.029,25.53,25.53,0,0,0,.442-2.845,2.246,2.246,0,0,0-1.878-2.728c-.367-.107-.751-.159-1.125-.243-1.894-.427-2.365-1.1-2.107-3.015.015-.114.06-.225.069-.339a11.441,11.441,0,0,0-.054-3.559,3.509,3.509,0,0,0-4.19-3,7.712,7.712,0,0,0-4.911,2.764,26.935,26.935,0,0,0-5.534,10.257.5.5,0,0,1,.135.6,2.533,2.533,0,0,0-.113,1.3,5.657,5.657,0,0,0,.639-1.586,31.221,31.221,0,0,1,5.129-9.621,10.629,10.629,0,0,1,2.441-2.269,5.069,5.069,0,0,1,3.06-.852,2.611,2.611,0,0,1,2.564,2.226,8.985,8.985,0,0,1,.208,1.831,23.58,23.58,0,0,1-.154,2.528c-.218,1.951.6,2.973,2.518,3.308.415.073.837.134,1.243.245a1.642,1.642,0,0,1,1.391,2.134c-.128.875-.27,1.748-.457,2.611a4.554,4.554,0,0,0,1.58,4.761c.439.373.858.771,1.266,1.18a3.194,3.194,0,0,1,.933,1.817,8.959,8.959,0,0,1-.089,3.442,33.441,33.441,0,0,1-3,7.473,1.343,1.343,0,0,1-1.083.735,9.9,9.9,0,0,0-2.421.742,27.073,27.073,0,0,0-10.105,8.035,6.362,6.362,0,0,0-1.208,2.6,3.93,3.93,0,0,0-.072,1.49,1.513,1.513,0,0,0,2.368,1.219,7.123,7.123,0,0,0,1.72-1.348c1.421-1.408,2.8-2.859,4.266-4.222a34.743,34.743,0,0,0,6.09-7.353,1.272,1.272,0,0,1,1.107-.662,6.444,6.444,0,0,1,4.34,1.255,14.653,14.653,0,0,1,4.148,4.588c1.585,2.647,1.784,4.089-.308,6.585a5.222,5.222,0,0,0-1.179,3.981,10.741,10.741,0,0,0,.6,2.458c.231.692.493,1.376.686,2.079a5.585,5.585,0,0,1-.353,3.933,6.824,6.824,0,0,1-4.461,3.73,6.313,6.313,0,0,0-4.113,3.439c-.839,1.778-2.345,2.226-4.115,2.088a20.005,20.005,0,0,1-10.216-3.563c-3.422-2.423-6.836-4.856-10.068-7.533-.177-.146-.319-.4-.7-.373a13.345,13.345,0,0,0,1.835,2.34c.948.956,1.912,1.9,2.824,2.888a29.768,29.768,0,0,1,4.5,5.826,6.792,6.792,0,0,1,1.036,3.611c-.027.536.027,1.117-.578,1.4-.392.181-.942-.137-1.348-.857-.471-.835-.887-1.7-1.285-2.577a24.287,24.287,0,0,0-7.5-9.495,3.573,3.573,0,0,0-1.263-.734c-.186.372.075.549.22.751.381.531.8,1.034,1.161,1.578,2.493,3.781,3.365,8.036,3.6,12.471a9.75,9.75,0,0,1-.22,3.1c-.165.6-.191,1.43-.966,1.553-.723.114-1.143-.532-1.526-1.063-.315-.435-.551-.93-.887-1.346a1.7,1.7,0,0,0-2.7-.245,8.24,8.24,0,0,0-1.061,1.212,1.385,1.385,0,0,1-2.1.48,6.117,6.117,0,0,1-2.123-1.912,1.8,1.8,0,0,1-.448-1.478,13.742,13.742,0,0,0,.081-1.958,3.171,3.171,0,0,0-.088-.914.877.877,0,0,0-.908-.735.865.865,0,0,0-.82.827,3.043,3.043,0,0,0,.045,1.145,5.509,5.509,0,0,0,.7,1.941,1.1,1.1,0,0,1-.172,1.454,1.33,1.33,0,0,1-1.681.3,5.735,5.735,0,0,1-1.875-1.321,32.93,32.93,0,0,1-7.271-10.99,10.7,10.7,0,0,1-.894-4.491c.049-1.156.108-1.2,1.292-1.151a61.35,61.35,0,0,0,6.346-.015,5.8,5.8,0,0,0,2.852-.818c.951-.616.951-1.379.012-1.981a4.85,4.85,0,0,0-.932-.449,10.381,10.381,0,0,0-6.238-.316,4.8,4.8,0,0,0-3.25,2.213,1.152,1.152,0,0,1-1.39.642,49.827,49.827,0,0,1-5.769-1.08,6.755,6.755,0,0,1-4.726-3.875c-.461-1.015-.915-2.034-1.418-3.027a4.223,4.223,0,0,0-3.206-2.382c-.53-.089-1.06-.175-1.592-.253a3.618,3.618,0,0,1-2.944-2.131c-.46-.977-.78-2-1.162-3.009a8.479,8.479,0,0,0-1.651-2.885,20.171,20.171,0,0,0-4.417-3.441.666.666,0,0,1-.452.209Zm71.007,3.368c-2.061,2.287-4.246,4.456-6.507,6.546a7.976,7.976,0,0,1-1.854,1.362c-.883.435-1.388.133-1.465-.867a3.843,3.843,0,0,1,.363-1.907,8.458,8.458,0,0,1,1.525-2.3A31.289,31.289,0,0,1,671.5,516.5a13.558,13.558,0,0,1,3.685-1.4,32.342,32.342,0,0,1-3.469,4.727m-30.609,32.463c.017-.162.094-.288.278-.283a.344.344,0,0,1,.321.272,4.337,4.337,0,0,1-.044,2.081,2.8,2.8,0,0,1-.554-2.069m-8.186-16.167a10.324,10.324,0,0,1,6.222.47,2.613,2.613,0,0,1,.418.193c.569.336.579.659,0,1.014a6.576,6.576,0,0,1-3.112.724,52.825,52.825,0,0,1-5.993.01.734.734,0,0,1-.6-.281,4.461,4.461,0,0,1,3.064-2.13" transform="translate(-13.629 -10.876)" fill="#204866"/>
    <path id="Path_167734" data-name="Path 167734" d="M605.189,510.7h0c.715.263,1.431.524,2.146.788a80.234,80.234,0,0,1,19.48,10.62c5.751,4.195,11.33,8.609,16.833,13.12.208.171.411.348.631.5.161.114.351.18.511-.01.118-.142.046-.287-.025-.424-.087-.171-.171-.344-.271-.508-2.391-3.931-5.032-7.609-8.926-10.274a5.736,5.736,0,0,1-2.473-6.253,6.065,6.065,0,0,0,.315-2.081,7.861,7.861,0,0,0-.783,4.3,6.531,6.531,0,0,0,2.813,4.582c.491.37,1,.714,1.487,1.092a28.566,28.566,0,0,1,6.483,7.593c.125.2.4.364.259.692a3.223,3.223,0,0,1-1.046-.719q-6.164-5.038-12.473-9.894a90.01,90.01,0,0,0-17.735-10.926,43.364,43.364,0,0,0-6.975-2.675.566.566,0,0,1-.251.472" transform="translate(-13.73 -11.576)" fill="#204866"/>
    <path id="Path_167735" data-name="Path 167735" d="M655.194,501.655h0c-.045.061-.115.115-.131.182a80.5,80.5,0,0,0-2.083,14,58.9,58.9,0,0,1-1.658,10.919,13.518,13.518,0,0,1-1.443,3.63,5.19,5.19,0,0,1-1.151,1.432.871.871,0,0,1-1.335,0,2.817,2.817,0,0,1-.477-.5c-2.889-3.944-4.867-8.191-4.375-13.253a4.606,4.606,0,0,0-.093-1.766c-.192.941-.322,1.886-.474,2.828a8.286,8.286,0,0,0,0,2.521,22.006,22.006,0,0,0,3.208,8.087,12.228,12.228,0,0,0,1.669,2.344,1.549,1.549,0,0,0,2.428.1,5.937,5.937,0,0,0,1.038-1.23,12.868,12.868,0,0,0,1.7-4.014,61.157,61.157,0,0,0,1.642-10.691c.184-2.488.416-4.973.8-7.444s.94-4.9,1.428-7.342c-.247.011-.347.539-.694.2" transform="translate(-14.563 -11.377)" fill="#204866"/>
    <path id="Path_167736" data-name="Path 167736" d="M600.63,517.138h0c.082-.216.3-.151.451-.209-.282-.3-.557-.61-.85-.9A11.521,11.521,0,0,1,598,513.137c-.847-1.647-.114-2.987,1.739-3.181a8.927,8.927,0,0,1,4.173.5,5.939,5.939,0,0,0,1.095.221.562.562,0,0,1,.251-.472,4.622,4.622,0,0,1-.53-.158,9.293,9.293,0,0,0-5.393-.61c-2.123.464-2.892,2.06-1.878,3.975a10.166,10.166,0,0,0,3.176,3.724" transform="translate(-13.545 -11.554)" fill="#204866"/>
  </g>
</svg>
