<svg xmlns="http://www.w3.org/2000/svg" width="95.168" height="84.821" viewBox="0 0 95.168 84.821">
  <g id="icon04" transform="translate(-138.531 -547.266)">
    <path id="Path_167766" data-name="Path 167766" d="M142.214,620.729a13.58,13.58,0,0,0-3.886.263,38.989,38.989,0,0,0-12.752,5.982c-2.908,2.012-5.7,4.189-8.561,6.277-2.876,2.1-5.766,4.182-8.649,6.271a18.035,18.035,0,0,1,1.261-3.135c.353-.795.754-1.766-.031-2.414-.7-.576-1.524.009-2.264.334-1.278.563-2.324,1.518-3.767,2.345.216-.8.351-1.329.5-1.853a28.072,28.072,0,0,0,1.326-8.229,33.427,33.427,0,0,0-.792-7.005c-1.712-7.307-4.388-14.23-8.947-20.295a62.359,62.359,0,0,0-6.8-7.657c-1.772-1.691-3.253-1.876-5.034-.773a3.662,3.662,0,0,0-1.419,1.683,11.31,11.31,0,0,0-1.181,4.846,58.976,58.976,0,0,1-.4,7.43,12.794,12.794,0,0,1-2.287,5.448,7.882,7.882,0,0,0-.359,8.137,45.649,45.649,0,0,0,2.93,5.4c1.338,2.061.822,3.5-1.455,4.348-.522.193-1.08.283-1.61.455a29.489,29.489,0,0,0-3.167,1.086,4.869,4.869,0,0,0-3.055,4.694,13.217,13.217,0,0,0,.9,4.727,2.058,2.058,0,0,1-.577,2.506c-.924.828-1.787,1.711-2.776,2.479a11.817,11.817,0,0,0-3.477,3.839c-1.945,3.79.035,7.13,4.3,7.125a20.742,20.742,0,0,0,6.916-1.3c5.5-1.958,10.888-4.207,16.272-6.463.336-.141.713-.6,1.124-.1.016.452-.329.669-.555.951a19.552,19.552,0,0,0-3.54,6.714,5.059,5.059,0,0,0-.205,2.2,1.469,1.469,0,0,0,2.211,1.182,3.19,3.19,0,0,0,.922-.622c2.04-2,4.139-3.937,5.992-6.131a17.209,17.209,0,0,1,3.633-3.9c-.769,2.046-1.369,3.724-2.026,5.378a20.979,20.979,0,0,0-1.418,9.676c.289,3.363,2.281,5.323,5.155,5.134a3.941,3.941,0,0,0,3.044-1.9,38.736,38.736,0,0,1,4.833-5.417c1.771-1.747,3.555-3.48,5.32-5.234a7.988,7.988,0,0,0,2.459-4.308,5.825,5.825,0,0,1,3.69-4.55c.508-.233,1.02-.466,1.5-.748a6.279,6.279,0,0,0,3.543-5.117,8.107,8.107,0,0,1,2.167-5.393c1.8-1.806,3.707-3.486,5.679-5.1a58.98,58.98,0,0,0,5.829-4.926,3.721,3.721,0,0,0,1.223-2.238c.112-1.321-.427-2.057-1.733-2.109" transform="translate(77.002 -41.146)" fill="#d5e7b0"/>
    <path id="Path_167767" data-name="Path 167767" d="M153.919,614.87a13.165,13.165,0,0,0-3.889.308,42.909,42.909,0,0,0-10.829,4.461,168.647,168.647,0,0,0-17.643,11.515,43.787,43.787,0,0,0-9.418,9.252c-1.07,1.457-2.041,1.932-4.15,2.175.366-.488.711-.925,1.033-1.377,2.192-3.093,4.625-6.053,6.109-9.572a25.352,25.352,0,0,1,7.049-9.99,3.247,3.247,0,0,0-2.305,1.187,19.412,19.412,0,0,0-4.686,6.446,57.575,57.575,0,0,1-7.462,12.007c-.337.447-.673.9-.977,1.364-.233.359-.6.791-.309,1.189.343.476.91.242,1.384.118a9.4,9.4,0,0,1,2.278-.652,8.264,8.264,0,0,0-.089,4.878,19.721,19.721,0,0,0,3.156,7.7,5.414,5.414,0,0,0,2.678,2.233,2.511,2.511,0,0,0,2.614-.519c.756-.685.411-1.483.133-2.245a12.343,12.343,0,0,0-.526-1.194q-1.192-2.426-2.4-4.844c-.366-.733-.575-1.312.5-1.726a1.872,1.872,0,0,0,1.248-2.4c-.148-.544.1-.808.581-.963.533-.171,1.067-.337,1.587-.542a10.8,10.8,0,0,0,3.658-2.185,1.727,1.727,0,0,0-1.174-3.125,5.433,5.433,0,0,0-2.207.267c-1.757.622-3.521,1.225-5.284,1.83-.379.13-.753.473-1.188.079a3.777,3.777,0,0,1,1.027-1.523,38.6,38.6,0,0,1,6.41-5.963,196.863,196.863,0,0,1,16.506-11.215A54.331,54.331,0,0,1,147.4,617a19.032,19.032,0,0,1,5.628-1.214c2.1-.085,2.857.9,2.347,2.912a9.384,9.384,0,0,1-2.434,4.131,71.122,71.122,0,0,1-10.261,8.926c-4.767,3.431-8.7,7.607-10.938,13.166a5.906,5.906,0,0,1-4.24,3.6c-2.005.522-3.925.492-5.565-1.057a3.777,3.777,0,0,0-1.643-.854c-.547-.146-1.181-.379-1.5.255-.336.669.273.992.756,1.254a5.956,5.956,0,0,0,1.532.669c2.45.508,3.2,2.364,3.539,4.476a7.814,7.814,0,0,1-.41,3.674,9.967,9.967,0,0,1-5.253,5.8c-3.487,1.793-6.621,3.916-8.787,7.28a4.921,4.921,0,0,1-1.855,1.536,3.909,3.909,0,0,1-1.58.529c-3.162.228-7.277-1.538-7.589-6.258a14.66,14.66,0,0,1,.293-4.074c1.106-5.145,3.207-9.917,5.314-14.694.3-.69,1.223-1.7.508-2.131-.941-.567-1.347.774-1.81,1.4-2.912,3.956-5.768,7.954-8.641,11.94a36.486,36.486,0,0,1-3.539,4.33c-.267.272-.485.768-1.074.5a4,4,0,0,1,.341-2.343,26.437,26.437,0,0,1,2.16-4.331,61.937,61.937,0,0,1,8.592-10.773,6.285,6.285,0,0,0,1.366-1.759c.249-.568-.055-.886-.6-.788a7.757,7.757,0,0,0-1.37.567,12.246,12.246,0,0,1-2.98,1.207c.021-.468.017-.835.057-1.2a63.139,63.139,0,0,0-.113-12.848,33.439,33.439,0,0,0-1.863-8.721,8.512,8.512,0,0,0-1.883-3.188c-1.29-1.267-2.4-1.131-3.325.4a9.781,9.781,0,0,0-1.105,2.955,34.086,34.086,0,0,0-.465,7.8c.008,1.119.031,2.241-.022,3.358a1.228,1.228,0,0,1-1.441,1.32,17.3,17.3,0,0,0-2.239.021,5.053,5.053,0,0,0-3.55,1.408,2.473,2.473,0,0,0,.179,3.9c.347.309.739.566,1.241.945a7.9,7.9,0,0,0-2.928,2.467c-1.269,1.877-.813,3.452,1.257,4.347a8.374,8.374,0,0,0,1.415.46,18.134,18.134,0,0,0,5.939.053,34.767,34.767,0,0,0,6.912-1.419,4.666,4.666,0,0,1-1.388,1.965,20.994,20.994,0,0,1-5.334,3.727,64.532,64.532,0,0,1-17.931,6.136,10.227,10.227,0,0,1-4.987-.113c-2.132-.678-2.987-2.138-2.405-4.307a19.759,19.759,0,0,1,.99-2.612,3.817,3.817,0,0,0-.82-4.617c-1.576-1.526-1.814-2.944-.6-5.227.263-.493.552-.974.848-1.448a7.329,7.329,0,0,0,1.184-5.5,5.262,5.262,0,0,1,2.293-5.521,12.677,12.677,0,0,1,6.684-2.6,3.583,3.583,0,0,1,2.759.8,10.43,10.43,0,0,0,4.114,2.122c.543.131,1.2.17,1.436-.5.19-.542-.238-.944-.647-1.234a9.456,9.456,0,0,0-4.066-1.778,4.718,4.718,0,0,1-2.735-1.43c-.531-.525-1.086-1.025-1.611-1.555-2.976-3-3.528-6.413-1.811-10.261a32.12,32.12,0,0,1,2.948-4.963,12.265,12.265,0,0,0,1.792-10.32,21.467,21.467,0,0,1-.5-2.368c-.448-3.427,1.574-5.717,5.07-5.864,3.088-.129,5.52,1.26,7.7,3.232a34.031,34.031,0,0,1,7.4,9.759,71.205,71.205,0,0,1,6.055,16.595,54.654,54.654,0,0,1,1.511,18.837,13.01,13.01,0,0,1-.6,2.719c-.128.373-.241.763.179.976s.647-.209.91-.444a1.989,1.989,0,0,0,.233-.29c1.478-1.922,3-3.812,4.422-5.776a17.777,17.777,0,0,0,3.024-12.583c-.053-.55-.051-1.191-.842-1.564.323,3.583.272,6.984-1.1,10.222a40.6,40.6,0,0,1-5.765,8.956,61.56,61.56,0,0,0,.549-7.4c-.08-2.485-.351-4.95-.617-7.422a67.753,67.753,0,0,0-7.439-23.884,31.47,31.47,0,0,0-7.891-10.067,12.435,12.435,0,0,0-5.615-2.8c-5.724-1.086-9.406,2.763-8.007,8.377.015.061.027.122.045.182a11.96,11.96,0,0,1-1.977,11.116,22.747,22.747,0,0,0-2.745,4.86,9.127,9.127,0,0,0,2.238,10.9c.553.537,1.094,1.09,1.646,1.642a2.634,2.634,0,0,1-1.53.478,13.366,13.366,0,0,0-7.015,3.635,4.682,4.682,0,0,0-1.6,4.2,9.627,9.627,0,0,1-1.623,7.23c-1.652,2.61-1.607,4.521.613,6.707a2.863,2.863,0,0,1,.587,3.433q-.475,1.113-.889,2.253c-1.163,3.206.082,5.527,3.4,6.334a12.52,12.52,0,0,0,5,.01,63.746,63.746,0,0,0,16.446-5.323,32.7,32.7,0,0,0,5.925-3.518,7.829,7.829,0,0,0,2.969-3.285c.583-1.592,1.787-1.981,3.195-2.481a1.9,1.9,0,0,1-.677,1.064,68.535,68.535,0,0,0-7.69,10.3,16.3,16.3,0,0,0-2.163,4.93c-.206.922-.484,2,.5,2.522.946.5,1.573-.463,2.171-1.053a45.535,45.535,0,0,0,5.034-6.233q2.793-3.951,5.61-7.883c.328.726-.029,1.183-.238,1.681a84.3,84.3,0,0,0-3.784,10.709,11.388,11.388,0,0,0-.02,6.248c.886,3.1,3.128,4.7,6.084,5.415,2.763.666,4.921-.516,6.435-2.735a16.57,16.57,0,0,1,7.114-5.813,15.731,15.731,0,0,0,4.878-3.389c2.5-2.594,3.794-7.682,1.54-10.833a.4.4,0,0,1,.062-.535c3.678.241,6.531-1.108,8.1-4.626a30.383,30.383,0,0,1,11.54-13.348,48.024,48.024,0,0,0,9.888-8.763,9.892,9.892,0,0,0,2.3-4.627,2.67,2.67,0,0,0-2.612-3.468m-33.655,24.669a3.46,3.46,0,0,1,1.823-.24,1.16,1.16,0,0,1,.9.581c.234.505-.167.813-.478,1.1a8.968,8.968,0,0,1-2.692,1.629c-.515.212-1.032.427-1.561.6a3.764,3.764,0,0,0-1.674.753c-.476.491-.108,1.052-.069,1.588.054.762-.533,1.048-1.079,1.35-1.481.817-1.5.826-.79,2.375.851,1.858,1.74,3.7,2.612,5.547a3.617,3.617,0,0,1,.231.507c.173.611.812,1.266.045,1.837a1.712,1.712,0,0,1-2.222-.252,6.638,6.638,0,0,1-1.282-1.335,18.074,18.074,0,0,1-3.356-9.522c-.032-2.592.479-3.318,2.577-4.053,2.339-.82,4.674-1.65,7.014-2.463M81.5,628.995a4.3,4.3,0,0,1-2.428-1.134c1.252-.119,1.327-.085,2.428,1.134m15.09,15.325c-.058.706-.2,1.309-1.023,1.583a26.751,26.751,0,0,1-11.894,1.543,6.419,6.419,0,0,1-1.615-.425c-1.687-.689-1.947-1.713-.84-3.2a4.775,4.775,0,0,1,3.081-1.93c.41-.073.982.039,1.081-.512.119-.67-.574-.7-.96-.952a16.988,16.988,0,0,1-1.745-1.061,1.5,1.5,0,0,1-.015-2.535,3.885,3.885,0,0,1,2.573-.926c.746-.035,1.493,0,2.239-.029,1.848-.072,2.443-.587,2.588-2.454a28.335,28.335,0,0,0-.022-3.54,31.632,31.632,0,0,1,.558-7.975,6.093,6.093,0,0,1,.709-1.914c.645-1.079,1.127-1.135,2-.188a8.739,8.739,0,0,1,1.77,3.25,32.045,32.045,0,0,1,1.429,7.3,50.058,50.058,0,0,1,.356,7.548,51.024,51.024,0,0,1-.273,6.416" transform="translate(77.085 -41.105)" fill="#204866"/>
  </g>
</svg>
