<svg xmlns="http://www.w3.org/2000/svg" width="38.272" height="38.109" viewBox="0 0 38.272 38.109">
  <g id="pen" transform="translate(-25.022 -24.899)">
    <path id="Path_162781" data-name="Path 162781" d="M63.287,26.118a1.21,1.21,0,0,0-.482-.892,2.584,2.584,0,0,0-2.767.207l-.03.016a7.935,7.935,0,0,0-1.3.9c-4.588,3.453-17.551,15.853-20.514,18.7l0,0-.6.581a1.687,1.687,0,0,0-.432,1.541L30.266,54.7a.94.94,0,0,0-.537.3,1.506,1.506,0,0,0-.3,1.144l-2.965,2.646a.239.239,0,0,0-.065.1L25.036,62.69a.238.238,0,0,0,.345.285c.029-.017,2.976-1.76,4.206-1.76a.928.928,0,0,1,.109.006.238.238,0,0,0,.2-.077l2.081-2.307c.053,0,.119.007.193.007h0c.729,0,1.2-.29,1.3-.8l1.142-1.124h0L40.735,50.9a1.519,1.519,0,0,0,.6.125,2.036,2.036,0,0,0,1.546-.886c.478-.516,14.79-15.969,16.811-18.173C62.216,29.21,63.393,27.3,63.287,26.118ZM40.524,50.442l0,0L35.2,55.681a2.683,2.683,0,0,0-.093-.264l4-4.2a.238.238,0,0,0-.344-.328l-3.884,4.078a5.693,5.693,0,0,0-.568-.8,3.254,3.254,0,0,0-1.86-1.146L38,46.967a4.2,4.2,0,0,1,2.15.945,2.159,2.159,0,0,1,.958,1.955ZM34.547,56.32q-.044-.115-.091-.223l.279-.293a1.445,1.445,0,0,1,.057.274Zm-1.121,1.1q-.019-.106-.042-.206a.227.227,0,0,0,.037-.032l.677-.711c.026.069.052.14.076.213ZM31.39,54.175a3.238,3.238,0,0,1,2.5,1.83l-.664.7a3.276,3.276,0,0,0-2.37-1.94Zm.67-.731a2.679,2.679,0,0,1,1.886,1.025,4.943,4.943,0,0,1,.588.856l-.3.319a3.8,3.8,0,0,0-2.463-1.881Zm-2.436,7.3a8.379,8.379,0,0,0-3.07,1.055l2.026-2.1a.567.567,0,1,0-.356-.316l-2.381,2.465.983-2.745,3.009-2.685h0l.424-.372a3.438,3.438,0,0,1,1.926,1.829l-.479.558Zm-.972-1.584a.09.09,0,1,1,.09.09A.091.091,0,0,1,28.652,59.156Zm3.745-.8.233-.271a.238.238,0,0,0,.05-.212,3.921,3.921,0,0,0-2.388-2.328.238.238,0,0,0-.236.046l-.139.122a.771.771,0,0,1,.161-.391.462.462,0,0,1,.3-.16,2.829,2.829,0,0,1,2.631,2.762C32.965,58.215,32.686,58.324,32.4,58.357Zm8.72-7.832.379-.373a.238.238,0,0,0,.065-.117,2.569,2.569,0,0,0-1.119-2.5,4.42,4.42,0,0,0-2.547-1.05h0a.237.237,0,0,0-.17.077L37.6,46.7a1.158,1.158,0,0,1,.137-.472,3.439,3.439,0,0,1,2.811.967,5.719,5.719,0,0,1,1.482,3.116A1.159,1.159,0,0,1,41.117,50.525Zm1.4-.7a.218.218,0,0,0-.021.026c0,.006-.022.03-.051.067a6.164,6.164,0,0,0-1.556-3.057,3.791,3.791,0,0,0-2.708-1.133l.274-.264c.544.005,3.565.218,4.365,4.034Zm16.82-18.183C57.553,33.593,46.158,45.9,43.212,49.079c-.046-.184-.1-.359-.154-.526L56.509,34.4a.238.238,0,1,0-.345-.328L42.871,48.06a4.863,4.863,0,0,0-3.957-3.032c3.555-3.411,15.7-14.991,20.1-18.306a7.192,7.192,0,0,1,1.18-.829,2.46,2.46,0,0,1,2.126,1.873A21.031,21.031,0,0,1,59.338,31.645Zm3.271-4.485a2.864,2.864,0,0,0-1.728-1.593,1.7,1.7,0,0,1,1.638.038.741.741,0,0,1,.3.555A2.223,2.223,0,0,1,62.609,27.16Z" fill="#f2a88d"/>
    <path id="Path_162782" data-name="Path 162782" d="M441.824,743.845l-.629.648a.238.238,0,0,0,.341.331l.629-.648a.238.238,0,0,0-.341-.331Z" transform="translate(-401.847 -694.242)" fill="#f2a88d"/>
    <path id="Path_162783" data-name="Path 162783" d="M948.7,229.431l-1.369,1.449a.238.238,0,1,0,.345.326l1.369-1.449a.238.238,0,1,0-.345-.326Z" transform="translate(-890.646 -197.452)" fill="#f2a88d"/>
  </g>
</svg>
