<svg xmlns="http://www.w3.org/2000/svg" width="30.198" height="28.205" viewBox="0 0 30.198 28.205">
  <path id="quets02" d="M-25.151-134.647v-.846a14.6,14.6,0,0,0,5.526-6.251,17.151,17.151,0,0,0,1.661-6.976q0-3.563-1.208-3.563h-3.08a4.852,4.852,0,0,1-3.08-1.872,5.815,5.815,0,0,1-1.148-3.624,4.522,4.522,0,0,1,1.631-3.8,6.02,6.02,0,0,1,3.8-1.268,6.5,6.5,0,0,1,3.986,1.359,9.171,9.171,0,0,1,2.869,3.8,13.8,13.8,0,0,1,1.057,5.526,18.643,18.643,0,0,1-3.261,10.479A18.03,18.03,0,0,1-25.151-134.647Zm16.85,0v-.846a14.708,14.708,0,0,0,5.405-6.342,17.441,17.441,0,0,0,1.661-6.885q0-3.563-1.268-3.563-.906,0-1.872.03a6.132,6.132,0,0,1-1.208-.03,4.942,4.942,0,0,1-3.05-1.872,5.715,5.715,0,0,1-1.178-3.624,4.47,4.47,0,0,1,1.691-3.775,6.09,6.09,0,0,1,3.8-1.3,6.95,6.95,0,0,1,5.738,3.02,12.318,12.318,0,0,1,2.3,7.67A18.643,18.643,0,0,1,.457-141.683,18.03,18.03,0,0,1-8.3-134.647Z" transform="translate(26.479 162.852)" fill="#a9d9d0"/>
</svg>
