<svg xmlns="http://www.w3.org/2000/svg" width="32.395" height="30.257" viewBox="0 0 32.395 30.257">
  <path id="quots" d="M4.49-162.852v.907a15.664,15.664,0,0,0-5.928,6.706,18.4,18.4,0,0,0-1.782,7.483q0,3.823,1.3,3.823h3.3a5.205,5.205,0,0,1,3.3,2.008,6.238,6.238,0,0,1,1.231,3.887,4.851,4.851,0,0,1-1.749,4.082,6.458,6.458,0,0,1-4.082,1.361,6.967,6.967,0,0,1-4.276-1.458,9.838,9.838,0,0,1-3.078-4.082A14.807,14.807,0,0,1-8.4-144.063,20,20,0,0,1-4.9-155.3,19.342,19.342,0,0,1,4.49-162.852Zm-18.076,0v.907a15.778,15.778,0,0,0-5.8,6.8,18.71,18.71,0,0,0-1.782,7.386q0,3.823,1.361,3.823.972,0,2.008-.032a6.579,6.579,0,0,1,1.3.032,5.3,5.3,0,0,1,3.272,2.008,6.13,6.13,0,0,1,1.263,3.887,4.8,4.8,0,0,1-1.814,4.049,6.532,6.532,0,0,1-4.082,1.393,7.456,7.456,0,0,1-6.155-3.239,13.214,13.214,0,0,1-2.462-8.228,20,20,0,0,1,3.5-11.241A19.342,19.342,0,0,1-13.586-162.852Z" transform="translate(26.479 162.852)" fill="#a9d9d0"/>
</svg>
